<svg width="1345" height="355" viewBox="0 0 358 75" fill="none" xmlns="http://www.w3.org/2000/svg">
<path opacity="0.05" d="M18.0076 0.48826L11.2823 0.48826V0.7029L12.427 0.7029C15.9328 0.7029 18.0076 1.06063 18.0076 4.49486L18.0076 48.7821L-17.1217 0.48826L-22.273 0.48826H-22.6307H-23.3462L-29.2845 0.48826V0.7029H-28.2113C-24.634 0.7029 -22.6307 1.06063 -22.6307 4.49486L-22.6307 54.5773C-22.6307 58.0831 -24.634 58.4408 -28.2113 58.4408H-29.2845V58.5839H-22.6307H-22.273H-15.6192V58.4408H-16.6924C-20.2697 58.4408 -22.273 58.0115 -22.273 54.5773L-22.273 3.35012L18.0076 58.6555H18.2938L18.2938 4.49486C18.2938 1.06063 20.3686 0.7029 23.8744 0.7029H25.0192V0.48826L18.2938 0.48826H18.0076ZM28.9039 37.4062C28.9039 25.6726 34.4845 16.4431 42.7124 16.4431C49.5093 16.4431 54.1598 22.6676 55.5907 31.3247C51.441 32.3979 45.5742 33.972 41.2814 35.1167C36.2016 36.4761 32.6243 38.9802 31.2649 42.3429C30.5495 43.9169 30.4779 45.634 30.9072 47.4227C29.6194 44.4893 28.9039 41.1266 28.9039 37.4062ZM44.1433 57.4392C39.2066 57.4392 34.7707 54.5058 31.9804 49.6406C30.7641 47.0649 30.5495 44.5608 31.5511 42.4144C32.839 39.1948 36.3447 36.6907 41.353 35.4029C45.6458 34.2581 51.5126 32.7557 55.7338 31.6109L61.0282 30.2516C58.7387 22.0237 52.4427 16.1569 42.7124 16.1569C30.4064 16.1569 23.5379 25.6726 23.5379 37.4062C23.5379 49.1398 30.4064 58.6555 42.7124 58.6555C52.7288 58.6555 59.0965 52.3594 61.2429 43.7738L60.8851 43.6307C58.4526 53.7188 51.5841 57.4392 44.1433 57.4392ZM123.784 16.1569H123.426H116.272V16.3H117.774C121.208 16.3 123.068 16.7293 121.709 20.0204L107.829 51.5724L94.1637 20.1635C92.5897 16.7293 94.5214 16.3716 98.0987 16.3716H99.5297V16.1569H92.375L86.5082 16.1569H80.2837V16.3H80.9992C84.5765 16.3 86.7944 16.7293 88.2969 20.1635L92.2319 29.1784L82.3585 51.6439L68.6216 20.2351C67.1192 16.8008 69.0509 16.4431 72.5567 16.4431H74.0592V16.1569L66.9045 16.1569H61.0377H54.8132V16.3H55.5287C59.106 16.3 61.3239 16.7293 62.8264 20.1635L79.6398 58.6555L92.375 29.5361L105.11 58.6555L121.995 20.1635C123.498 16.6577 125.716 16.3 129.293 16.3H130.008V16.1569H123.784ZM159.192 28.2483C159.192 21.5944 162.626 16.4431 169.423 16.4431C176.22 16.4431 179.726 21.5944 179.726 28.2483C179.726 34.9736 176.22 40.0534 169.423 40.0534C162.626 40.0534 159.192 34.9736 159.192 28.2483ZM173.072 45.9202L167.635 45.9202C162.626 45.9202 155.615 45.9918 155.615 43.7738C155.615 41.8421 159.192 40.7689 162.412 39.3379C164.415 40.0534 166.776 40.4111 169.423 40.4111C179.511 40.4111 185.163 35.0452 185.163 28.3198C185.163 23.8839 182.731 20.0204 178.152 17.9456C180.155 15.6561 184.09 14.2967 188.741 13.6528C187.811 11.9357 185.45 11.0771 183.232 12.2934C181.443 13.2235 178.939 16.5862 178.009 17.874C175.648 16.8008 172.786 16.2285 169.423 16.2285C159.335 16.2285 153.683 21.666 153.683 28.3913C153.683 33.1134 156.545 37.3346 161.911 39.2664C158.477 40.7689 153.683 41.699 153.683 45.7771C153.683 50.4276 161.124 51.0715 168.35 51.0715L174.36 51.0715C182.302 51.0715 191.674 50.4992 191.674 57.6538C191.674 67.1695 178.152 71.2476 169.423 71.2476C160.766 71.2476 151.823 68.0996 151.823 60.1579C151.823 57.2245 153.111 54.9351 154.613 53.2895C151.68 52.4309 146.457 54.6489 146.457 61.088C146.457 67.3126 152.395 74.3957 168.135 74.3957C182.659 74.3957 192.032 65.5955 192.032 57.6538C192.032 50.2845 186.594 45.9202 173.072 45.9202ZM216.803 27.5328V52.0016C213.369 54.9351 209.005 58.0831 204.712 58.0831C199.632 58.0831 195.983 54.5773 195.983 49.2829C195.983 43.1299 200.634 38.0501 207.001 35.4029H207.073C210.722 33.7573 215.587 31.8256 216.803 27.5328ZM224.602 57.2961C223.028 57.2961 222.241 56.2944 222.241 53.7188V26.4596C222.241 22.1668 218.592 16.1569 208.861 16.1569C201.278 16.1569 197.271 18.5895 195.697 20.9505C194.194 23.1685 194.338 27.2466 196.985 28.606C198.917 22.3099 203.352 16.5862 208.861 16.5862C214.084 16.5862 216.732 20.1635 216.803 25.8157C216.517 30.8955 211.223 33.2565 207.359 34.9021C198.13 38.9802 190.617 41.3412 190.617 49.7122C190.617 56.5806 197.772 58.6555 203.71 58.6555C209.291 58.6555 214.084 54.792 216.803 52.4309C216.803 57.4392 219.808 58.6555 222.67 58.6555C225.603 58.6555 228.179 56.366 228.179 52.9318H227.893C227.964 55.0781 226.462 57.2961 224.602 57.2961ZM236.635 54.6489V0.48826L226.118 5.71115V5.85424C230.554 3.49321 231.269 4.49486 231.269 7.28517V54.5773C231.269 58.0831 229.266 58.4408 225.689 58.4408H224.616V58.5839H243.361V58.4408H242.216C238.71 58.4408 236.635 58.0831 236.635 54.6489ZM252.169 54.6489V0.48826L241.652 5.71115V5.85424C246.087 3.49321 246.803 4.49486 246.803 7.28517V54.5773C246.803 58.0831 244.8 58.4408 241.222 58.4408H240.149V58.5839H258.894V58.4408H257.749C254.244 58.4408 252.169 58.0831 252.169 54.6489ZM327.157 16.1569C322.077 16.1569 318.357 19.6627 314.064 25.2433V16.1569L303.475 21.3083V21.5229C307.911 19.1619 308.698 20.1635 308.698 22.9538V32.541C302.044 42.1282 292.887 57.4392 278.363 57.4392C273.426 57.4392 268.99 54.5058 266.2 49.6406C264.983 47.0649 264.84 44.5608 265.77 42.4144C267.13 39.1948 270.564 36.6907 275.572 35.4029C279.865 34.2581 285.732 32.7557 289.953 31.6109L295.248 30.2516C292.958 22.0237 286.662 16.1569 277.003 16.1569C264.626 16.1569 257.829 25.6726 257.829 37.4062C257.829 49.1398 264.626 58.6555 277.003 58.6555C294.532 58.6555 305.121 37.5493 310.487 30.5377C313.993 25.7441 317.355 20.1635 322.936 19.8058H323.508C328.874 19.5196 331.021 22.5245 332.595 25.6726C337.245 21.0936 332.309 16.1569 327.157 16.1569ZM263.195 37.4062C263.195 25.6726 268.775 16.4431 277.003 16.4431C283.729 16.4431 288.379 22.6676 289.882 31.3247C285.732 32.3979 279.794 33.972 275.501 35.1167C270.421 36.4761 266.844 38.9802 265.484 42.3429C264.84 43.9169 264.697 45.634 265.127 47.4227C263.839 44.4893 263.195 41.1266 263.195 37.4062ZM314.064 54.6489V28.606C312.776 30.18 309.915 34.5443 308.698 36.9054V54.5773C308.698 58.0831 306.623 58.4408 303.118 58.4408H301.973V58.5839H320.79V58.4408H319.645C316.139 58.4408 314.064 58.0831 314.064 54.6489ZM375.083 16.1569H374.726H367.571V16.3H369.002C372.436 16.3 374.368 16.7293 373.008 20.0204L359.128 51.5724L345.177 19.5196L345.391 20.1635C343.889 16.6577 345.821 16.3 349.327 16.3H350.829V16.1569H343.674H337.808L331.583 16.1569V16.3H332.299C335.876 16.3 338.094 16.7293 339.596 20.1635L356.267 58.2977L353.834 63.8068C351.831 68.4573 349.112 73.6087 344.175 73.6087C339.239 73.6087 337.664 66.3825 337.021 61.875C335.16 62.8052 332.942 64.7369 333.372 68.1711C333.801 72.0346 337.521 74.2526 342.887 74.2526C348.468 74.2526 351.401 69.9598 353.762 64.7369L356.41 58.6555L373.295 20.1635C374.869 16.6577 377.087 16.3 380.592 16.3H381.379V16.1569L375.083 16.1569Z" fill="#DCDCCF"/>
</svg>
