<svg width="390" height="850" viewBox="0 0 322 66" fill="none" xmlns="http://www.w3.org/2000/svg">
<g opacity="0.25">
<mask id="path-1-outside-1_18_5" maskUnits="userSpaceOnUse" x="-1" y="-1" width="324" height="68" fill="black">
<rect fill="white" x="-1" y="-1" width="324" height="68"/>
<path d="M28.5437 65.6133C41.9498 65.6133 48.4337 57.3769 52.2015 48.9653L51.7634 48.4396C46.7689 54.5731 40.6354 55.7121 37.3935 55.7121C25.2141 55.7121 18.0291 43.0947 17.9415 27.3228C17.8539 12.7777 22.5854 2.17547 31.1723 2.17547C40.7231 2.17547 44.8413 16.2825 45.8927 18.9988H46.5061L51.851 7.69562C46.068 2.96407 38.4449 0.685908 31.8733 0.685908C13.21 0.685908 0.15437 15.3187 0.15437 32.843C0.15437 52.9082 13.8233 65.6133 28.5437 65.6133ZM81.7887 1.21163H80.562L57.0795 58.2532C56.2033 60.2684 54.8014 62.5466 51.4717 64.3867V65H64.0016V64.3867C61.1977 62.8095 58.4815 59.0417 60.3215 54.3978L64.2645 44.8471L84.5926 44.9347L89.2366 55.5369C91.4271 60.3561 88.9737 63.0723 85.1184 64.3867V65H112.719V64.3867C109.214 62.2837 108.163 59.0417 107.111 56.7636L81.7887 1.21163ZM74.1657 20.9264L83.8917 43.2699H64.9654L74.1657 20.9264ZM135.435 65.6133C150.418 65.6133 159.706 57.9903 159.706 46.1614C159.706 24.0808 127.023 26.2713 127.023 11.2881C127.023 5.76794 130.966 2.00023 137.538 2.00023C145.424 2.00023 152.696 11.0252 155.588 17.8597H156.026L158.304 6.46892C153.047 3.13931 147.001 0.685908 137.888 0.685908C125.446 0.685908 115.107 7.608 115.107 19.7874C115.107 41.2546 146.826 39.3269 146.826 54.5731C146.826 61.4075 142.445 64.299 135.26 64.299C127.023 64.299 119.137 54.7483 115.282 48.9653H114.844L112.829 59.8303C117.56 63.3352 126.936 65.6133 135.435 65.6133ZM165.651 1.21163L163.11 16.5454H163.635C166.439 10.5871 172.836 2.78882 180.196 2.78882H184.051V56.9388C183.963 60.0056 182.386 63.5104 180.196 64.3867V65H203.766V64.3867C201.575 63.5104 199.998 60.0056 199.998 56.9388V2.78882H202.627C209.987 2.78882 216.383 10.5871 219.187 16.5454H219.713L217.26 1.21163H165.651ZM269.304 51.1558C266.851 57.4646 261.068 63.8609 248.012 63.8609H243.806V9.2728C243.806 6.20606 245.471 2.7012 247.661 1.82499V1.21163H224.179V1.82499C226.369 2.7012 227.947 6.20606 227.947 9.2728V56.9388C227.947 60.0056 226.369 63.5104 224.179 64.3867V65H267.552L269.83 51.1558H269.304ZM320.853 51.1558C318.399 57.3769 312.616 63.7733 297.458 63.7733H293.778V30.74H304.029C306.395 30.74 309.988 34.9459 310.951 38.8012H311.477V21.2769H310.951C309.988 25.3951 306.22 29.3381 304.029 29.3381H293.778V2.35071H296.582C309.9 2.35071 315.683 8.74707 318.136 15.0558H318.575L316.384 1.21163H274.151V1.82499C276.341 2.7012 277.918 6.20606 277.918 9.2728V56.9388C277.918 60.0056 276.341 63.5104 274.151 64.3867V65H319.1L321.378 51.1558H320.853Z"/>
</mask>
<path d="M52.2015 48.9653L53.1141 49.3741L53.3692 48.8045L52.9697 48.3251L52.2015 48.9653ZM51.7634 48.4396L52.5316 47.7994L51.7544 46.8668L50.9879 47.8081L51.7634 48.4396ZM17.9415 27.3228L18.9415 27.3173L18.9415 27.3168L17.9415 27.3228ZM45.8927 18.9988L44.9602 19.3598L45.2075 19.9988H45.8927V18.9988ZM46.5061 18.9988V19.9988H47.1394L47.4101 19.4263L46.5061 18.9988ZM51.851 7.69562L52.755 8.1231L53.0891 7.41656L52.4842 6.92166L51.851 7.69562ZM28.5437 66.6133C35.4723 66.6133 40.6715 64.4776 44.6236 61.2148C48.555 57.9691 51.1966 53.6549 53.1141 49.3741L51.2888 48.5565C49.4386 52.6873 46.9543 56.6971 43.3503 59.6725C39.767 62.6309 35.0212 64.6133 28.5437 64.6133V66.6133ZM52.9697 48.3251L52.5316 47.7994L50.9951 49.0798L51.4333 49.6055L52.9697 48.3251ZM50.9879 47.8081C46.2312 53.6497 40.4195 54.7121 37.3935 54.7121V56.7121C40.8514 56.7121 47.3067 55.4964 52.5388 49.071L50.9879 47.8081ZM37.3935 54.7121C31.7037 54.7121 27.1529 51.7846 23.9717 46.8872C20.7737 41.964 18.9846 35.0689 18.9415 27.3173L16.9415 27.3284C16.9861 35.3485 18.8332 42.6482 22.2945 47.9766C25.7724 53.3309 30.9039 56.7121 37.3935 56.7121V54.7121ZM18.9415 27.3168C18.8982 20.1333 20.0487 14.0204 22.1975 9.74368C24.3366 5.48635 27.3803 3.17547 31.1723 3.17547V1.17547C26.3775 1.17547 22.7619 4.16568 20.4104 8.84575C18.0687 13.5064 16.8972 19.9672 16.9415 27.3288L18.9415 27.3168ZM31.1723 3.17547C35.3989 3.17547 38.5558 6.29618 40.8657 10.0887C43.1593 13.8544 44.4026 17.9194 44.9602 19.3598L46.8253 18.6378C46.3314 17.3619 44.9899 13.0152 42.5738 9.04835C40.1741 5.10828 36.4965 1.17547 31.1723 1.17547V3.17547ZM45.8927 19.9988H46.5061V17.9988H45.8927V19.9988ZM47.4101 19.4263L52.755 8.1231L50.947 7.26813L45.6021 18.5713L47.4101 19.4263ZM52.4842 6.92166C46.5031 2.02798 38.6492 -0.314093 31.8733 -0.314093V1.68591C38.2406 1.68591 45.6329 3.90015 51.2177 8.46957L52.4842 6.92166ZM31.8733 -0.314093C12.6166 -0.314093 -0.84563 14.8083 -0.84563 32.843H1.15437C1.15437 15.829 13.8033 1.68591 31.8733 1.68591V-0.314093ZM-0.84563 32.843C-0.84563 53.3855 13.1989 66.6133 28.5437 66.6133V64.6133C14.4477 64.6133 1.15437 52.431 1.15437 32.843H-0.84563ZM81.7887 1.21163L82.6987 0.796858L82.4319 0.211634H81.7887V1.21163ZM80.562 1.21163V0.211634H79.8923L79.6373 0.830956L80.562 1.21163ZM57.0795 58.2532L57.9966 58.6519L58.0005 58.6429L58.0042 58.6338L57.0795 58.2532ZM51.4717 64.3867L50.9881 63.5114L50.4717 63.7967V64.3867H51.4717ZM51.4717 65H50.4717V66H51.4717V65ZM64.0016 65V66H65.0016V65H64.0016ZM64.0016 64.3867H65.0016V63.8018L64.4919 63.5151L64.0016 64.3867ZM60.3215 54.3978L59.3972 54.0162L59.3945 54.0228L59.3918 54.0294L60.3215 54.3978ZM64.2645 44.8471L64.2688 43.8471L63.5966 43.8442L63.3401 44.4655L64.2645 44.8471ZM84.5926 44.9347L85.5086 44.5335L85.2476 43.9375L84.5969 43.9347L84.5926 44.9347ZM89.2366 55.5369L88.3205 55.9381L88.3262 55.9507L89.2366 55.5369ZM85.1184 64.3867L84.7957 63.4401L84.1184 63.671V64.3867H85.1184ZM85.1184 65H84.1184V66H85.1184V65ZM112.719 65V66H113.719V65H112.719ZM112.719 64.3867H113.719V63.8205L113.234 63.5292L112.719 64.3867ZM107.111 56.7636L106.201 57.1784L106.203 57.1826L107.111 56.7636ZM74.1657 20.9264L75.0826 20.5273L74.1401 18.3622L73.241 20.5457L74.1657 20.9264ZM83.8917 43.2699V44.2699H85.4176L84.8086 42.8708L83.8917 43.2699ZM64.9654 43.2699L64.0408 42.8891L63.4722 44.2699H64.9654V43.2699ZM81.7887 0.211634H80.562V2.21163H81.7887V0.211634ZM79.6373 0.830956L56.1548 57.8725L58.0042 58.6338L81.4867 1.59231L79.6373 0.830956ZM56.1624 57.8544C55.3483 59.7269 54.0747 61.8057 50.9881 63.5114L51.9554 65.2619C55.5281 63.2875 57.0583 60.81 57.9966 58.6519L56.1624 57.8544ZM50.4717 64.3867V65H52.4717V64.3867H50.4717ZM51.4717 66H64.0016V64H51.4717V66ZM65.0016 65V64.3867H63.0016V65H65.0016ZM64.4919 63.5151C61.9702 62.0967 59.6537 58.798 61.2512 54.7662L59.3918 54.0294C57.3092 59.2855 60.4252 63.5223 63.5113 65.2582L64.4919 63.5151ZM61.2458 54.7794L65.1888 45.2287L63.3401 44.4655L59.3972 54.0162L61.2458 54.7794ZM64.2602 45.8471L84.5883 45.9347L84.5969 43.9347L64.2688 43.8471L64.2602 45.8471ZM83.6766 45.3359L88.3206 55.9381L90.1525 55.1357L85.5086 44.5335L83.6766 45.3359ZM88.3262 55.9507C89.3308 58.1608 89.1942 59.6926 88.5752 60.7821C87.9261 61.9244 86.6148 62.82 84.7957 63.4401L85.441 65.3332C87.4773 64.639 89.3203 63.5193 90.3141 61.7701C91.338 59.9681 91.3329 57.7322 90.1469 55.1231L88.3262 55.9507ZM84.1184 64.3867V65H86.1184V64.3867H84.1184ZM85.1184 66H112.719V64H85.1184V66ZM113.719 65V64.3867H111.719V65H113.719ZM113.234 63.5292C110.053 61.6209 109.123 58.7366 108.019 56.3445L106.203 57.1826C107.202 59.3469 108.375 62.9466 112.205 65.2441L113.234 63.5292ZM108.021 56.3488L82.6987 0.796858L80.8788 1.62641L106.201 57.1784L108.021 56.3488ZM73.2488 21.3256L82.9748 43.669L84.8086 42.8708L75.0826 20.5273L73.2488 21.3256ZM83.8917 42.2699H64.9654V44.2699H83.8917V42.2699ZM65.8901 43.6507L75.0904 21.3072L73.241 20.5457L64.0408 42.8891L65.8901 43.6507ZM155.588 17.8597L154.667 18.2493L154.925 18.8597H155.588V17.8597ZM156.026 17.8597V18.8597H156.846L157.007 18.0558L156.026 17.8597ZM158.304 6.46892L159.285 6.66503L159.419 5.99157L158.839 5.6241L158.304 6.46892ZM115.282 48.9653L116.114 48.4106L115.817 47.9653H115.282V48.9653ZM114.844 48.9653V47.9653H114.012L113.861 48.7829L114.844 48.9653ZM112.829 59.8303L111.845 59.648L111.731 60.2621L112.233 60.6339L112.829 59.8303ZM135.435 66.6133C143.086 66.6133 149.397 64.6676 153.817 61.1015C158.26 57.5172 160.706 52.3617 160.706 46.1614H158.706C158.706 51.79 156.508 56.3605 152.561 59.5449C148.592 62.7476 142.767 64.6133 135.435 64.6133V66.6133ZM160.706 46.1614C160.706 34.4609 151.96 29.2427 143.812 25.1688C139.658 23.0917 135.695 21.3274 132.721 19.1466C129.791 16.9981 128.023 14.5886 128.023 11.2881H126.023C126.023 15.4792 128.341 18.4146 131.539 20.7595C134.692 23.072 138.901 24.9495 142.917 26.9577C151.111 31.0545 158.706 35.7814 158.706 46.1614H160.706ZM128.023 11.2881C128.023 8.77792 128.912 6.73758 130.486 5.31628C132.07 3.8864 134.44 3.00023 137.538 3.00023V1.00023C134.064 1.00023 131.177 1.99791 129.146 3.83193C127.106 5.67453 126.023 8.27812 126.023 11.2881H128.023ZM137.538 3.00023C141.103 3.00023 144.654 5.05226 147.735 8.08028C150.8 11.0924 153.269 14.9451 154.667 18.2493L156.509 17.4701C155.015 13.9399 152.402 9.86282 149.137 6.65379C145.887 3.4607 141.859 1.00023 137.538 1.00023V3.00023ZM155.588 18.8597H156.026V16.8597H155.588V18.8597ZM157.007 18.0558L159.285 6.66503L157.324 6.2728L155.045 17.6636L157.007 18.0558ZM158.839 5.6241C153.445 2.20807 147.217 -0.314093 137.888 -0.314093V1.68591C146.785 1.68591 152.648 4.07055 157.769 7.31374L158.839 5.6241ZM137.888 -0.314093C131.493 -0.314093 125.566 1.46382 121.214 4.88305C116.839 8.32059 114.107 13.3828 114.107 19.7874H116.107C116.107 14.0125 118.544 9.52404 122.45 6.45569C126.378 3.36904 131.842 1.68591 137.888 1.68591V-0.314093ZM114.107 19.7874C114.107 31.1753 122.606 36.309 130.506 40.4011C134.535 42.4876 138.377 44.2891 141.258 46.5158C144.093 48.7071 145.826 51.1841 145.826 54.5731H147.826C147.826 50.3389 145.594 47.3397 142.481 44.9335C139.415 42.5629 135.328 40.6459 131.426 38.6252C123.467 34.5028 116.107 29.8667 116.107 19.7874H114.107ZM145.826 54.5731C145.826 57.7614 144.816 59.8702 143.117 61.2147C141.374 62.5938 138.744 63.299 135.26 63.299V65.299C138.961 65.299 142.114 64.5585 144.358 62.7832C146.645 60.9733 147.826 58.2192 147.826 54.5731H145.826ZM135.26 63.299C131.513 63.299 127.717 61.1115 124.294 58.0549C120.897 55.0209 118.015 51.2622 116.114 48.4106L114.45 49.52C116.404 52.4514 119.393 56.3595 122.962 59.5466C126.505 62.7112 130.77 65.299 135.26 65.299V63.299ZM115.282 47.9653H114.844V49.9653H115.282V47.9653ZM113.861 48.7829L111.845 59.648L113.812 60.0127L115.827 49.1477L113.861 48.7829ZM112.233 60.6339C114.746 62.4954 118.414 63.9823 122.474 65.0058C126.551 66.0334 131.102 66.6133 135.435 66.6133V64.6133C131.269 64.6133 126.882 64.0543 122.963 63.0665C119.029 62.0747 115.642 60.6701 113.424 59.0268L112.233 60.6339ZM165.651 1.21163V0.211634H164.803L164.664 1.04815L165.651 1.21163ZM163.11 16.5454L162.123 16.3819L161.93 17.5454H163.11V16.5454ZM163.635 16.5454V17.5454H164.27L164.54 16.9712L163.635 16.5454ZM184.051 2.78882H185.051V1.78882H184.051V2.78882ZM184.051 56.9388L185.051 56.9674L185.051 56.9531V56.9388H184.051ZM180.196 64.3867L179.824 63.4582L179.196 63.7096V64.3867H180.196ZM180.196 65H179.196V66H180.196V65ZM203.766 65V66H204.766V65H203.766ZM203.766 64.3867H204.766V63.7096L204.137 63.4582L203.766 64.3867ZM199.998 2.78882V1.78882H198.998V2.78882H199.998ZM219.187 16.5454L218.282 16.9712L218.553 17.5454H219.187V16.5454ZM219.713 16.5454V17.5454H220.886L220.7 16.3874L219.713 16.5454ZM217.26 1.21163L218.247 1.05364L218.112 0.211634H217.26V1.21163ZM164.664 1.04815L162.123 16.3819L164.096 16.7089L166.637 1.37512L164.664 1.04815ZM163.11 17.5454H163.635V15.5454H163.11V17.5454ZM164.54 16.9712C165.896 14.0895 168.126 10.7581 170.891 8.16177C173.667 5.55573 176.872 3.78882 180.196 3.78882V1.78882C176.159 1.78882 172.486 3.92107 169.522 6.70374C166.548 9.49612 164.178 13.043 162.73 16.1196L164.54 16.9712ZM180.196 3.78882H184.051V1.78882H180.196V3.78882ZM183.051 2.78882V56.9388H185.051V2.78882H183.051ZM183.051 56.9103C183.012 58.2968 182.632 59.7981 182.016 61.0398C181.387 62.3081 180.592 63.1511 179.824 63.4582L180.567 65.3151C181.99 64.7459 183.079 63.3985 183.808 61.9285C184.55 60.4321 185.003 58.6476 185.051 56.9674L183.051 56.9103ZM179.196 64.3867V65H181.196V64.3867H179.196ZM180.196 66H203.766V64H180.196V66ZM204.766 65V64.3867H202.766V65H204.766ZM204.137 63.4582C203.37 63.1513 202.576 62.3089 201.959 61.0456C201.355 59.8079 200.998 58.3145 200.998 56.9388H198.998C198.998 58.6299 199.43 60.4223 200.162 61.9228C200.882 63.3977 201.971 64.7457 203.395 65.3151L204.137 63.4582ZM200.998 56.9388V2.78882H198.998V56.9388H200.998ZM199.998 3.78882H202.627V1.78882H199.998V3.78882ZM202.627 3.78882C205.95 3.78882 209.156 5.55573 211.931 8.16177C214.696 10.7581 216.926 14.0895 218.282 16.9712L220.092 16.1196C218.644 13.043 216.274 9.49612 213.3 6.70374C210.337 3.92107 206.664 1.78882 202.627 1.78882V3.78882ZM219.187 17.5454H219.713V15.5454H219.187V17.5454ZM220.7 16.3874L218.247 1.05364L216.272 1.36963L218.726 16.7034L220.7 16.3874ZM217.26 0.211634H165.651V2.21163H217.26V0.211634ZM269.304 51.1558V50.1558H268.62L268.372 50.7934L269.304 51.1558ZM243.806 63.8609H242.806V64.8609H243.806V63.8609ZM247.661 1.82499L248.033 2.75346L248.661 2.50202V1.82499H247.661ZM247.661 1.21163H248.661V0.211634H247.661V1.21163ZM224.179 1.21163V0.211634H223.179V1.21163H224.179ZM224.179 1.82499H223.179V2.50202L223.808 2.75346L224.179 1.82499ZM224.179 64.3867L223.808 63.4582L223.179 63.7096V64.3867H224.179ZM224.179 65H223.179V66H224.179V65ZM267.552 65V66H268.4L268.538 65.1624L267.552 65ZM269.83 51.1558L270.816 51.3182L271.008 50.1558H269.83V51.1558ZM268.372 50.7934C267.2 53.8062 265.248 56.8059 262.057 59.057C258.87 61.3057 254.371 62.8609 248.012 62.8609V64.8609C254.708 64.8609 259.629 63.218 263.21 60.6913C266.788 58.167 268.954 54.8142 270.236 51.5183L268.372 50.7934ZM248.012 62.8609H243.806V64.8609H248.012V62.8609ZM244.806 63.8609V9.2728H242.806V63.8609H244.806ZM244.806 9.2728C244.806 7.90628 245.181 6.41671 245.805 5.17751C246.442 3.91353 247.259 3.06315 248.033 2.75346L247.29 0.896509C245.874 1.46304 244.762 2.80319 244.019 4.27738C243.264 5.77634 242.806 7.57258 242.806 9.2728H244.806ZM248.661 1.82499V1.21163H246.661V1.82499H248.661ZM247.661 0.211634H224.179V2.21163H247.661V0.211634ZM223.179 1.21163V1.82499H225.179V1.21163H223.179ZM223.808 2.75346C224.575 3.06029 225.369 3.90276 225.986 5.16601C226.59 6.4037 226.947 7.89709 226.947 9.2728H228.947C228.947 7.58176 228.515 5.78936 227.783 4.28888C227.063 2.81396 225.974 1.46589 224.55 0.896509L223.808 2.75346ZM226.947 9.2728V56.9388H228.947V9.2728H226.947ZM226.947 56.9388C226.947 58.3145 226.59 59.8079 225.986 61.0456C225.369 62.3089 224.575 63.1513 223.808 63.4582L224.55 65.3151C225.974 64.7457 227.063 63.3977 227.783 61.9228C228.515 60.4223 228.947 58.6299 228.947 56.9388H226.947ZM223.179 64.3867V65H225.179V64.3867H223.179ZM224.179 66H267.552V64H224.179V66ZM268.538 65.1624L270.816 51.3182L268.843 50.9934L266.565 64.8376L268.538 65.1624ZM269.83 50.1558H269.304V52.1558H269.83V50.1558ZM320.853 51.1558V50.1558H320.172L319.922 50.789L320.853 51.1558ZM293.778 63.7733H292.778V64.7733H293.778V63.7733ZM293.778 30.74V29.74H292.778V30.74H293.778ZM310.952 38.8012L309.981 39.0437L310.171 39.8012H310.952V38.8012ZM311.477 38.8012V39.8012H312.477V38.8012H311.477ZM311.477 21.2769H312.477V20.2769H311.477V21.2769ZM310.952 21.2769V20.2769H310.159L309.978 21.049L310.952 21.2769ZM293.778 29.3381H292.778V30.3381H293.778V29.3381ZM293.778 2.35071V1.35071H292.778V2.35071H293.778ZM318.136 15.0558L317.204 15.4183L317.452 16.0558H318.136V15.0558ZM318.575 15.0558V16.0558H319.745L319.562 14.8995L318.575 15.0558ZM316.384 1.21163L317.372 1.05535L317.238 0.211634H316.384V1.21163ZM274.151 1.21163V0.211634H273.151V1.21163H274.151ZM274.151 1.82499H273.151V2.50202L273.779 2.75346L274.151 1.82499ZM274.151 64.3867L273.779 63.4582L273.151 63.7096V64.3867H274.151ZM274.151 65H273.151V66H274.151V65ZM319.1 65V66H319.949L320.087 65.1624L319.1 65ZM321.378 51.1558L322.365 51.3182L322.556 50.1558H321.378V51.1558ZM319.922 50.789C318.754 53.7518 316.81 56.7202 313.374 58.9597C309.93 61.204 304.898 62.7733 297.458 62.7733V64.7733C305.176 64.7733 310.615 63.1444 314.466 60.6353C318.324 58.1213 320.498 54.781 321.783 51.5227L319.922 50.789ZM297.458 62.7733H293.778V64.7733H297.458V62.7733ZM294.778 63.7733V30.74H292.778V63.7733H294.778ZM293.778 31.74H304.029V29.74H293.778V31.74ZM304.029 31.74C304.342 31.74 304.815 31.8885 305.42 32.2905C306.01 32.6819 306.643 33.2599 307.257 33.9757C308.49 35.4143 309.544 37.2937 309.981 39.0437L311.922 38.5587C311.395 36.4533 310.171 34.3022 308.775 32.6741C308.075 31.8565 307.306 31.1421 306.527 30.6244C305.763 30.1173 304.899 29.74 304.029 29.74V31.74ZM310.952 39.8012H311.477V37.8012H310.952V39.8012ZM312.477 38.8012V21.2769H310.477V38.8012H312.477ZM311.477 20.2769H310.952V22.2769H311.477V20.2769ZM309.978 21.049C309.541 22.9139 308.453 24.7838 307.204 26.1868C306.582 26.8849 305.943 27.4415 305.359 27.816C304.756 28.2032 304.302 28.3381 304.029 28.3381V30.3381C304.852 30.3381 305.69 29.9801 306.44 29.4993C307.209 29.0058 307.983 28.3193 308.697 27.5169C310.12 25.9189 311.398 23.7582 311.925 21.5048L309.978 21.049ZM304.029 28.3381H293.778V30.3381H304.029V28.3381ZM294.778 29.3381V2.35071H292.778V29.3381H294.778ZM293.778 3.35071H296.582V1.35071H293.778V3.35071ZM296.582 3.35071C303.076 3.35071 307.642 4.90805 310.861 7.15721C314.082 9.40794 316.033 12.4062 317.204 15.4183L319.068 14.6934C317.786 11.3967 315.619 8.0424 312.006 5.51776C308.391 2.99156 303.405 1.35071 296.582 1.35071V3.35071ZM318.136 16.0558H318.575V14.0558H318.136V16.0558ZM319.562 14.8995L317.372 1.05535L315.396 1.36792L317.587 15.2121L319.562 14.8995ZM316.384 0.211634H274.151V2.21163H316.384V0.211634ZM273.151 1.21163V1.82499H275.151V1.21163H273.151ZM273.779 2.75346C274.546 3.06029 275.341 3.90276 275.957 5.16601C276.561 6.4037 276.918 7.89709 276.918 9.2728H278.918C278.918 7.58176 278.487 5.78936 277.755 4.28888C277.035 2.81396 275.945 1.46589 274.522 0.896509L273.779 2.75346ZM276.918 9.2728V56.9388H278.918V9.2728H276.918ZM276.918 56.9388C276.918 58.3145 276.561 59.8079 275.957 61.0456C275.341 62.3089 274.546 63.1513 273.779 63.4582L274.522 65.3151C275.945 64.7457 277.035 63.3977 277.755 61.9228C278.487 60.4223 278.918 58.6299 278.918 56.9388H276.918ZM273.151 64.3867V65H275.151V64.3867H273.151ZM274.151 66H319.1V64H274.151V66ZM320.087 65.1624L322.365 51.3182L320.392 50.9934L318.114 64.8376L320.087 65.1624ZM321.378 50.1558H320.853V52.1558H321.378V50.1558Z" fill="white" mask="url(#path-1-outside-1_18_5)"/>
</g>
</svg>
